<svg version="1.1" xmlns="http://www.w3.org/2000/svg" xmlns:xlink="http://www.w3.org/1999/xlink" width="80" height="80" viewBox="0,0,256,256"><defs><clipPath id="clip-1"><rect x="0" y="0" width="80" height="80" id="clip0_369_941" fill="none"></rect></clipPath></defs><g fill="none" fill-rule="nonzero" stroke="none" stroke-width="1" stroke-linecap="butt" stroke-linejoin="miter" stroke-miterlimit="10" stroke-dasharray="" stroke-dashoffset="0" font-family="none" font-weight="none" font-size="none" text-anchor="none" style="mix-blend-mode: normal"><g transform="scale(3.2,3.2)"><g clip-path="url(#clip-1)"><path d="M71.6498,24.5527l-2.2986,2.3234c4.8223,6.4265 7.1613,14.3773 6.5868,22.3908c-0.5745,8.0139 -4.024,15.5494 -9.7132,21.2228c-5.6898,5.6725 -13.2365,9.0989 -21.2523,9.6498c-0.7608,0.0496 -1.516,0.0744 -2.2658,0.0744c-4.666,0.0098 -9.2817,-0.9633 -13.5462,-2.8571c-4.2651,-1.8936 -8.0824,-4.6648 -11.2037,-8.1332c-0.7331,-0.8508 -0.6535,-2.1314 0.1806,-2.8841c0.8335,-0.7528 2.1152,-0.702 2.887,0.1136c5.1366,5.6864 12.3015,9.126 19.9514,9.5782c7.6488,0.4522 15.1699,-2.1198 20.9393,-7.1613c5.77,-5.0415 9.3285,-12.148 9.907,-19.7889c0.5792,-7.6407 -1.8677,-15.2024 -6.8129,-21.056c-0.698,-0.8214 -0.6478,-2.0419 0.1159,-2.8033l3.6052,-3.6052h0.0006c0.5226,-0.5785 0.5006,-1.4657 -0.0508,-2.0165c-0.5515,-0.5515 -1.4386,-0.574 -2.0165,-0.0508l-3.7459,3.7459h-0.0006c-0.728,0.728 -1.881,0.8093 -2.7037,0.1904c-4.1491,-3.112 -9.0538,-5.0588 -14.2072,-5.6402c-1.0475,-0.1136 -1.8419,-0.9968 -1.8441,-2.0507v-6.66523c-0.0086,-0.55376 0.2054,-1.0879 0.5941,-1.48303c0.3882,-0.39513 0.9195,-0.61721 1.4733,-0.61721h1.8936c0.8088,0 1.464,-0.65527 1.464,-1.46341c0,-0.80872 -0.6552,-1.464 -1.464,-1.464h-10.8495c-0.8082,0 -1.4635,0.65528 -1.4635,1.464c0,0.80814 0.6553,1.46341 1.4635,1.46341h1.8936c0.5486,0 1.0747,0.21805 1.4623,0.60568c0.3876,0.38762 0.6051,0.91311 0.6051,1.46167v6.69802c-0.0017,1.051 -0.7914,1.933 -1.8355,2.0507c-6.6832,0.7655 -12.8985,3.8116 -17.5976,8.6253c-0.8018,0.8173 -2.114,0.8306 -2.9315,0.0288c-0.8179,-0.8012 -0.8306,-2.114 -0.0288,-2.9315c4.9254,-5.0334 11.3162,-8.3825 18.2576,-9.5678v-2.8363c-1.8919,-0.1724 -3.5676,-1.29264 -4.4497,-2.97518c-0.8825,-1.68312 -0.8514,-3.69864 0.0831,-5.35296c0.9345,-1.65432 2.6436,-2.7221 4.5402,-2.83566h10.8496c1.8966,0.11364 3.6063,1.18134 4.5408,2.83566c0.9344,1.65432 0.9656,3.66984 0.083,5.35296c-0.8819,1.68267 -2.5576,2.80278 -4.4502,2.97518v2.8034c4.6221,0.7821 9.0268,2.5322 12.9255,5.1354l2.4809,-2.481h-0.0005c1.4138,-1.4155 3.4753,-1.9687 5.4077,-1.4518c1.9324,0.5162 3.442,2.0246 3.9604,3.9564c0.5192,1.9324 -0.0322,3.994 -1.446,5.4089zM3.84082,36.2784c0,0.5485 0.21805,1.0746 0.60567,1.4622c0.38763,0.3876 0.91312,0.6051 1.46168,0.6051h14.35553c1.1421,0 2.0673,-0.9252 2.0673,-2.0673c0,-1.1416 -0.9252,-2.0674 -2.0673,-2.0674h-14.34741c-1.13807,0 -2.06277,0.9206 -2.06735,2.0592zM27.3421,46.3013c0,-0.5486 -0.218,-1.0741 -0.6056,-1.4623c-0.3877,-0.3876 -0.9137,-0.605 -1.4617,-0.605h-14.3474c-1.14155,0 -2.06735,0.9252 -2.06735,2.0673c0,1.1415 0.9258,2.0673 2.06735,2.0673h14.3474c0.548,0 1.074,-0.218 1.4617,-0.6056c0.3876,-0.3877 0.6056,-0.9137 0.6056,-1.4617zM5.91555,58.3991h14.34745c1.1421,0 2.0673,-0.9252 2.0673,-2.0673c0,-1.1416 -0.9252,-2.0674 -2.0673,-2.0674h-14.34745c-1.14154,0 -2.06735,0.9258 -2.06735,2.0674c0,1.1421 0.92581,2.0673 2.06735,2.0673zM54.1675,38.3207l-5.3006,5.3006v0.0005c1.047,1.989 1.0735,4.3602 0.071,6.3722c-1.0026,2.0114 -2.9119,3.4182 -5.1303,3.78c-2.2184,0.3617 -4.4757,-0.3663 -6.0647,-1.9554c-1.5898,-1.5898 -2.3171,-3.8469 -1.9554,-6.0653c0.3611,-2.2184 1.768,-4.1278 3.78,-5.1303c2.0119,-1.0025 4.3833,-0.976 6.3721,0.0715l5.3006,-5.3005v-0.0006c0.8081,-0.8081 2.1193,-0.8081 2.9273,0c0.8082,0.8088 0.8082,2.1194 0,2.9274zM45.5341,46.8716c0,-0.7522 -0.2988,-1.4738 -0.8307,-2.0056c-0.5318,-0.5319 -1.2534,-0.8307 -2.0056,-0.8307c-0.7522,0 -1.4738,0.2988 -2.0056,0.8307c-0.5318,0.5318 -0.8306,1.2534 -0.8306,2.0056c0,0.7522 0.2988,1.4738 0.8306,2.0056c0.5318,0.5319 1.2534,0.8306 2.0056,0.8306c0.7516,-0.0023 1.4715,-0.3016 2.0033,-0.8329c0.5312,-0.5318 0.8306,-1.2517 0.8329,-2.0033zM42.6978,71.473c5.4199,0.0087 10.6909,-1.772 14.9957,-5.0657c4.3037,-3.2943 7.4,-7.9169 8.8081,-13.1506c1.408,-5.234 1.0492,-10.7861 -1.0216,-15.7945c-2.0703,-5.0092 -5.7366,-9.1941 -10.429,-11.9063c-4.6931,-2.7116 -10.1492,-3.7984 -15.5229,-3.0919c-5.3738,0.7067 -10.3639,3.1674 -14.1957,7.001c-0.8082,0.8081 -0.8082,2.1187 0,2.9273c0.8087,0.8082 2.1193,0.8082 2.9274,0c3.8393,-3.8463 9.0504,-6.0087 14.4847,-6.0123c5.4343,-0.0028 10.6476,2.1539 14.4916,5.9956c3.8441,3.8418 6.0036,9.0534 6.0036,14.4882c0,5.4343 -2.1596,10.6459 -6.0036,14.4875c-3.8439,3.8416 -9.0573,5.9984 -14.4916,5.9956c-5.4343,-0.0035 -10.6454,-2.166 -14.4847,-6.0117c-0.8082,-0.8087 -2.1188,-0.8087 -2.9274,0c-0.8082,0.8081 -0.8082,2.1187 0,2.9268c2.2785,2.2848 4.9855,4.0972 7.9649,5.3345c2.9799,1.2373 6.1743,1.8752 9.4011,1.8764z" fill="#ff9d33"></path></g></g></g></svg>