<svg xmlns="http://www.w3.org/2000/svg" width="80" height="80" viewBox="0 0 80 80" fill="none">
<g clip-path="url(#clip0_401_77)">
<path d="M72.3146 38.3429L53.022 50.3715C53.3272 49.5783 53.5132 48.722 53.5132 47.8166C53.5132 43.8803 50.3102 40.6805 46.3772 40.6805H26.3963C24.4326 40.6805 21.9031 41.728 20.5136 43.1182L16.3517 47.2801C16.086 45.1737 14.302 43.535 12.1235 43.535H4.31971C1.95903 43.535 0.0380859 45.4559 0.0380859 47.8166V70.6519C0.0380859 73.0126 1.95903 74.9335 4.31971 74.9335H12.1235C13.9815 74.9335 15.5514 73.7376 16.1427 72.0791H44.9495C48.4576 72.0791 53.247 70.2378 55.8561 67.8944L78.287 47.6998C79.3688 46.6237 79.9626 45.1939 79.9626 43.6725C79.9626 39.8962 76.1804 36.9302 72.3155 38.3434L72.3146 38.3429ZM13.5511 70.6516C13.5511 71.4366 12.9114 72.0788 12.1239 72.0788H4.32009C3.53258 72.0788 2.89288 71.4366 2.89288 70.6516V47.8163C2.89288 47.0313 3.53258 46.3891 4.32009 46.3891H12.1239C12.9114 46.3891 13.5511 47.0313 13.5511 47.8163V70.6516ZM76.3254 45.6241L53.9468 65.7714C51.8659 67.6438 47.7467 69.2254 44.9497 69.2254H16.4055V51.2621L22.5311 45.1365C23.3849 44.2828 25.1887 43.5354 26.396 43.5354H46.3769C48.7376 43.5354 50.6585 45.4563 50.6585 47.817C50.6585 50.1777 48.7376 52.0986 46.3769 52.0986H31.4371C30.6495 52.0986 30.0098 52.7383 30.0098 53.5258C30.0098 54.3134 30.6495 54.9531 31.4371 54.9531H47.8035C49.6334 54.9531 52.282 54.1936 53.8348 53.2264L73.4226 40.9811C75.4321 40.3382 77.1079 41.8342 77.1079 43.6724C77.1079 44.4287 76.811 45.1423 76.3255 45.6247L76.3254 45.6241Z" fill="#ff9d33" stroke="#ff9d33" stroke-width="0.9"/>
<path d="M55.8293 22.7682L57.9449 23.5134C58.9688 23.8753 59.497 24.9738 59.1262 25.9647C58.8426 26.7203 58.0979 27.2286 57.2684 27.2286C56.6962 27.2603 56.1855 27.0189 55.7966 26.6446C55.6046 26.4542 55.4559 26.2425 55.3536 26.0096C55.1158 25.4719 54.4739 25.2262 53.9213 25.453C53.3667 25.6836 53.1089 26.3059 53.3472 26.8435C53.5568 27.3179 53.858 27.7517 54.2488 28.1325C54.7883 28.6555 55.4516 29.0047 56.168 29.189V30.6131C56.168 31.1971 56.6573 31.6714 57.2597 31.6714C57.862 31.6714 58.3513 31.1971 58.3513 30.6131V29.1799C59.633 28.8411 60.7091 27.9373 61.1789 26.6866C61.5591 25.675 61.5108 24.5825 61.0415 23.6068C60.5722 22.6312 59.7402 21.8903 58.6945 21.5217L56.5833 20.779C55.5594 20.417 55.0311 19.3185 55.4019 18.3276C55.6836 17.574 56.4283 17.0679 57.2597 17.0679C57.8163 16.9876 58.3426 17.2796 58.7379 17.6586C58.9255 17.8428 59.0698 18.0479 59.179 18.2875C59.4168 18.8228 60.0567 19.0623 60.6157 18.8379C61.1679 18.605 61.4238 17.9808 61.181 17.4449C60.9647 16.9625 60.6635 16.5307 60.2814 16.1645C59.74 15.6395 59.0742 15.2903 58.3535 15.1061V13.6786C58.3535 13.0946 57.8642 12.6202 57.2618 12.6202C56.6594 12.6202 56.1701 13.0946 56.1701 13.6786V15.1178C54.8908 15.4566 53.8186 16.3581 53.3513 17.605C52.9712 18.6166 53.0194 19.7091 53.4887 20.6847C53.9541 21.6609 54.788 22.3999 55.8295 22.768L55.8293 22.7682Z" fill="#ff9d33" stroke="#ff9d33" stroke-width="0.3"/>
<path d="M57.1255 39.253C66.5705 39.253 74.252 31.5715 74.252 22.1265C74.252 12.6815 66.5705 5 57.1255 5C47.6805 5 39.999 12.6815 39.999 22.1265C39.999 31.5715 47.6805 39.253 57.1255 39.253ZM57.1255 7.85442C64.9949 7.85442 71.3976 14.2571 71.3976 22.1265C71.3976 29.9959 64.9949 36.3986 57.1255 36.3986C49.2561 36.3986 42.8534 29.9959 42.8534 22.1265C42.8534 14.2571 49.2561 7.85442 57.1255 7.85442Z" fill="#ff9d33" stroke="#ff9d33" stroke-width="0.9"/>
</g>
<defs fill="#000000">
<clipPath id="clip0_401_77" fill="#000000">
<rect width="80" height="80" fill="white"/>
</clipPath>
</defs>
</svg>