<svg xmlns="http://www.w3.org/2000/svg" width="80" height="80" viewBox="0 0 80 80" fill="none">
<g clip-path="url(#clip0_401_679)">
<path d="M79.0843 59.2078L73.7797 60.4056C77.3733 54.2453 79.2556 47.4003 79.2556 40.2134C79.2556 18.1388 61.2879 0 39.0422 0C16.9677 0 -1 18.1388 -1 40.2134C-1 62.2879 16.9677 80.4267 39.2134 80.4267C40.2399 80.4267 40.9244 79.7422 40.9244 78.7157C40.9244 77.6892 40.2399 77.0046 39.2134 77.0046C18.85 77.0046 2.42241 60.4059 2.42241 40.2137C2.42241 20.0214 18.85 3.42272 39.2134 3.42272C59.4056 3.42272 76.0043 19.8503 76.0043 40.2137C76.0043 46.8874 74.2933 53.219 70.8704 58.8658L69.5013 53.2187C69.33 52.3628 68.3035 51.6789 67.4477 52.0209C66.5918 52.1922 65.9079 53.2187 66.2499 54.0745L68.4743 63.4864C68.6456 64.171 69.1588 64.6842 69.8434 64.6842H70.1854H70.5273H70.6986L80.1106 62.4598C80.9664 62.2885 81.6504 61.262 81.3084 60.4062C80.7957 59.5504 79.9405 59.0371 79.0846 59.2084L79.0843 59.2078Z" fill="#ff9d33" stroke="#ff9d33" stroke-width="0.3"/>
<path d="M39.2137 15.9142C26.0377 15.9142 15.2568 26.6946 15.2568 39.8711C15.2568 53.0471 26.0373 63.828 39.2137 63.828C52.3897 63.828 63.1706 53.0475 63.1706 39.8711C63.1706 26.6945 52.3902 15.9142 39.2137 15.9142ZM56.6681 41.5823H59.577C58.7211 51.5075 50.8496 59.3789 40.9248 60.2345V57.3256C40.9248 56.299 40.2402 55.6145 39.2137 55.6145C38.1872 55.6145 37.5027 56.2991 37.5027 57.3256V60.2345C27.5775 59.3786 19.7061 51.5072 18.8505 41.5823H21.7594C22.786 41.5823 23.4705 40.8977 23.4705 39.8712C23.4705 38.8447 22.7859 38.1602 21.7594 38.1602H18.8505C19.5345 28.235 27.5766 20.3636 37.5012 19.508V22.4169C37.5012 23.4435 38.1857 24.128 39.2122 24.128C40.2387 24.128 40.9233 23.4434 40.9233 22.4169V19.508C50.8484 20.3639 58.7198 28.2353 59.5754 38.1602H56.6665C55.64 38.1602 54.9555 38.8447 54.9555 39.8712C54.9561 40.8984 55.6406 41.5829 56.6671 41.5829L56.6681 41.5823Z" fill="#ff9d33" stroke="#ff9d33" stroke-width="0.8"/>
<path d="M39.2139 30.2883C38.1873 30.2883 37.5028 30.9729 37.5028 31.9994V39.1863L32.027 46.0313C31.5137 46.7158 31.5137 47.9136 32.1983 48.427C32.8828 48.9402 34.0806 48.9402 34.594 48.2557L40.583 41.0688C40.7543 40.7268 40.925 40.3842 40.925 40.0422V32.1707C40.9256 31.1441 40.0697 30.2883 39.2139 30.2883L39.2139 30.2883Z" fill="#ff9d33" stroke="#ff9d33" stroke-width="0.8"/>
</g>
<defs fill="#000000">
<clipPath id="clip0_401_679" fill="#000000">
<rect width="80" height="80" fill="white"/>
</clipPath>
</defs>
</svg>
