<svg xmlns="http://www.w3.org/2000/svg" width="80" height="80" viewBox="0 0 80 80" fill="none">
<g clip-path="url(#clip0_401_530)">
<path d="M10.1612 36.7336C9.16846 37.7805 8.57192 39.1405 8.47421 40.5802C8.38213 42.2851 8.97198 43.9569 10.1138 45.2269L18.3845 54.1209H18.385C18.8549 54.6265 19.6462 54.6549 20.1517 54.185C20.6573 53.7146 20.6863 52.9233 20.2159 52.4178L11.9448 43.5238C11.3226 42.8246 10.9811 41.9195 10.9866 40.9831C10.9922 40.0467 11.3443 39.1461 11.9749 38.4535C12.4693 37.9407 13.1133 37.5975 13.8142 37.4731C14.5157 37.3486 15.2383 37.4496 15.8789 37.761C16.6496 38.2627 17.3309 38.8899 17.8951 39.6164L30.5797 53.3898C31.4916 54.358 32.2337 55.4724 32.7762 56.6861C33.3029 57.8981 33.6199 59.1911 33.7131 60.5092L35.1138 60.1789H35.1132C35.4664 60.094 35.8264 60.041 36.1885 60.0204C35.9134 56.9835 34.6467 54.122 32.5842 51.8764L18.7049 36.805C17.5988 35.6304 16.0614 34.9585 14.4482 34.945C12.8349 34.9316 11.2863 35.5778 10.1613 36.7336L10.1612 36.7336Z" fill="#ff9d33" stroke="#ff9d33" stroke-width="1.2"/>
<path d="M13.2722 65.3279L14.8967 64.9451H14.8961C14.3068 63.3497 13.3984 61.891 12.226 60.6588L6.68471 54.8474V54.848C3.97772 51.9987 2.4783 48.213 2.50058 44.2833V17.4463C2.47882 16.4898 2.83708 15.564 3.49668 14.871C4.15628 14.1785 5.06368 13.7756 6.0201 13.7504C6.97601 13.7756 7.88338 14.1785 8.54295 14.8715C9.20255 15.5641 9.56025 16.4898 9.53849 17.4462V33.9819C10.298 33.4361 11.1428 33.021 12.0385 32.7531V17.4474C12.0597 15.828 11.438 14.2666 10.3096 13.1053C9.18129 11.944 7.63892 11.2772 6.02007 11.2515C4.40065 11.2771 2.85765 11.9434 1.72937 13.1053C0.601034 14.2666 -0.0206206 15.828 0.000522176 17.4474V44.2845C-0.0223577 48.8571 1.72423 53.261 4.8755 56.5746L10.4168 62.3854C11.3013 63.3123 11.9993 64.4004 12.4736 65.5909C12.7337 65.4859 13.0004 65.3983 13.2722 65.3291L13.2722 65.3279Z" fill="#ff9d33" stroke="#ff9d33" stroke-width="1.2"/>
<path d="M36.5676 77.5008H14.6834C14.1974 77.5264 13.7805 77.1559 13.7504 76.6693V70.9919C13.766 70.6046 14.0406 70.2771 14.4195 70.1945L36.318 65.0326H36.3174C36.6176 64.9556 36.9368 65.0209 37.1824 65.2095C37.3794 65.3568 37.4971 65.5873 37.5005 65.8334C37.5016 64.8206 37.7711 63.8261 38.2817 62.9517C37.5072 62.5114 36.5931 62.387 35.7293 62.6029L13.8308 67.7654C13.102 67.9372 12.4519 68.3485 11.9842 68.9333C11.5166 69.5181 11.2582 70.243 11.251 70.9919V76.6693C11.2655 77.5661 11.6355 78.4204 12.2789 79.0449C12.9223 79.6693 13.7873 80.013 14.684 80.0008H36.5682C37.1687 80.0013 37.7596 79.8462 38.2831 79.551C37.7713 78.6771 37.5018 77.6822 37.5013 76.6693C37.4711 77.1559 37.0543 77.5264 36.5682 77.5008L36.5676 77.5008Z" fill="#ff9d33" stroke="#ff9d33" stroke-width="1.2"/>
<path d="M73.9806 11.251C72.3618 11.2766 70.8194 11.9435 69.6911 13.1048C68.5627 14.2661 67.9411 15.8275 67.9622 17.447V32.7255C68.8612 32.9945 69.7067 33.4169 70.4622 33.9733V17.4476C70.4148 16.4844 70.7647 15.5436 71.4298 14.8455C72.0945 14.1468 73.0168 13.7517 73.9811 13.7517C74.9454 13.7517 75.8678 14.1468 76.5324 14.8455C77.1976 15.5435 77.5475 16.4844 77.5 17.4476V44.2846C77.5218 48.2144 76.0229 52.0006 73.3159 54.8499L67.7746 60.6596C66.6022 61.8923 65.6938 63.351 65.1045 64.9464L66.7289 65.3293H66.7284C67.0001 65.3985 67.2669 65.4861 67.5269 65.591C68.0012 64.4007 68.6993 63.3125 69.5837 62.3851L75.125 56.5754C78.2763 53.2613 80.0229 48.8573 80 44.2847V17.4477C80.0212 15.8283 79.3996 14.2668 78.2711 13.1056C77.1428 11.9437 75.5999 11.2774 73.9804 11.2517L73.9806 11.251Z" fill="#ff9d33" stroke="#ff9d33" stroke-width="1.2"/>
<path d="M61.2966 36.8066L47.4178 51.8765C45.3552 54.1221 44.0885 56.9836 43.8135 60.0205C44.1756 60.0411 44.5356 60.0942 44.8888 60.1795L46.2895 60.5099L46.2889 60.5093C46.4619 57.9268 47.5088 55.4792 49.2565 53.5696C49.2565 53.5696 63.084 38.5554 63.0796 38.5483C63.0991 38.5298 63.1209 38.5159 63.1393 38.4958H63.1387C63.7659 37.8139 64.6476 37.4227 65.574 37.4149C66.4998 37.4071 67.3881 37.7832 68.0271 38.4534C68.6761 39.1359 69.0411 40.0398 69.0472 40.9812C69.0528 41.9232 68.6995 42.8317 68.0589 43.5219L59.7861 52.4176C59.5601 52.6604 59.4401 52.9835 59.4524 53.3144C59.4641 53.6459 59.6075 53.9589 59.8503 54.1849C60.3559 54.6548 61.1472 54.6263 61.617 54.1208L69.8898 45.2251V45.2245C70.9484 44.0582 71.5294 42.5365 71.5181 40.9617C71.5069 39.387 70.9043 37.8735 69.8295 36.7222C68.7012 35.5744 67.1548 34.9348 65.5455 34.9511C63.9361 34.9667 62.4021 35.6364 61.2967 36.806L61.2966 36.8066Z" fill="#ff9d33" stroke="#ff9d33" stroke-width="1.2"/>
<path d="M66.1552 67.7607L44.2867 62.605C43.2404 62.3411 42.1299 62.5749 41.2789 63.2395C40.4742 63.8589 40.0021 64.8171 40.001 65.8327V76.6686C40.0155 77.5654 40.3855 78.4197 41.0289 79.0442C41.6723 79.6686 42.5373 80.0124 43.434 80.0001H65.3182C66.215 80.0124 67.0799 79.6686 67.7234 79.0442C68.3668 78.4197 68.7368 77.5653 68.7513 76.6686V70.9912C68.7429 70.2401 68.4828 69.5129 68.0124 68.9271C67.5414 68.3417 66.888 67.9304 66.1558 67.7608L66.1552 67.7607ZM66.2506 76.6685C66.2205 77.1551 65.8037 77.5257 65.3176 77.5H43.4334C42.9474 77.5257 42.5305 77.1551 42.5004 76.6685V65.8326C42.5037 65.5865 42.6215 65.356 42.8185 65.2087C43.0701 65.0201 43.3932 64.9565 43.6979 65.0346L65.5664 70.1897C65.9509 70.2684 66.2333 70.5988 66.2506 70.9911L66.2506 76.6685Z" fill="#ff9d33" stroke="#ff9d33" stroke-width="1.2"/>
<path d="M38.1389 44.1608C38.6132 44.6949 39.2935 45.0007 40.0077 45.0007C40.722 45.0007 41.4023 44.6949 41.876 44.1603L59.3388 24.6904C61.7808 21.8516 63.124 18.2305 63.124 14.4861C63.124 10.7411 61.7808 7.12012 59.3388 4.28127C56.9984 1.56314 53.59 0 50.0029 0C46.4164 0 43.0079 1.563 40.6669 4.28127L40.0073 5.01731L39.3471 4.28127C37.0067 1.56314 33.5983 0 30.0112 0C26.4247 0 23.0162 1.563 20.6758 4.28127C18.2332 7.11998 16.8906 10.7411 16.8906 14.4861C16.8906 18.2305 18.2332 21.8516 20.6758 24.6904L38.1389 44.1608ZM22.5375 5.95097C24.4035 3.76183 27.1352 2.50126 30.0118 2.50126C32.8883 2.50126 35.62 3.76242 37.486 5.95154L39.077 7.72496C39.3203 7.9783 39.6568 8.12116 40.0078 8.12116C40.3588 8.12116 40.6948 7.97775 40.9381 7.7244L42.5285 5.95098C44.3951 3.76185 47.1268 2.50128 50.0028 2.50128C52.8795 2.50128 55.611 3.76187 57.4776 5.95098C59.52 8.32597 60.6433 11.3544 60.6433 14.4872C60.6433 17.6195 59.52 20.6479 57.4776 23.0229L39.9991 42.4929L22.5377 23.0229C20.4947 20.6485 19.3714 17.6195 19.3714 14.4872C19.3714 11.3544 20.4947 8.32597 22.5377 5.95098L22.5375 5.95097Z" fill="#ff9d33" stroke="#ff9d33" stroke-width="1.2"/>
</g>
<defs fill="#000000">
<clipPath id="clip0_401_530" fill="#000000">
<rect width="80" height="80" fill="white"/>
</clipPath>
</defs>
</svg>