<svg xmlns="http://www.w3.org/2000/svg" width="80" height="80" viewBox="0 0 80 80" fill="none">
<path d="M39.9977 0C38.6375 0 37.8234 0.497605 36.9234 0.992588C36.0234 1.48757 35.1344 2.09809 34.2673 2.69284C33.4001 3.28761 32.5571 3.86859 31.8686 4.3104C31.1799 4.75221 30.5385 5.02531 30.6186 5.0043C30.6987 4.98264 30.0114 5.06141 29.1941 5.02268C28.3768 4.98329 27.3612 4.8927 26.3127 4.8113C25.2643 4.72924 24.1962 4.67016 23.1695 4.69182C22.1429 4.71348 21.1863 4.68722 20.008 5.36733C18.8298 6.04744 18.3708 6.88774 17.839 7.76603C17.3073 8.64441 16.8314 9.61081 16.3777 10.56C15.9241 11.5093 15.4843 12.4382 15.1094 13.1656C14.7346 13.8929 14.3203 14.4418 14.3787 14.3834C14.4372 14.3249 13.893 14.7392 13.1656 15.114C12.4382 15.4889 11.5093 15.9241 10.56 16.3777C9.61138 16.8314 8.63975 17.3073 7.76148 17.8391C6.88311 18.3708 6.04746 18.8297 5.36732 20.008C4.68721 21.1864 4.69509 22.1429 4.67343 23.1696C4.65176 24.1963 4.72989 25.2644 4.81129 26.3128C4.89335 27.3612 4.97935 28.3814 5.01808 29.1987C5.05616 30.016 4.97804 30.7033 4.9997 30.6232C5.02136 30.5431 4.74761 31.1845 4.30581 31.8732C3.864 32.5618 3.26922 33.4001 2.67446 34.2673C2.07969 35.1345 1.48296 36.0281 0.987998 36.928C0.493016 37.8281 0 38.6421 0 40.0023C0 41.3626 0.493016 42.1904 0.987998 43.0904C1.48298 43.9904 2.07972 44.8839 2.67446 45.7511C3.26924 46.6183 3.864 47.4566 4.30581 48.1453C4.74761 48.834 5.02136 49.4615 4.9997 49.3814C4.97803 49.3013 5.05616 49.9841 5.01808 50.8014C4.98001 51.6187 4.8927 52.6573 4.81129 53.7056C4.72923 54.754 4.65176 55.8221 4.67343 56.8488C4.69509 57.8755 4.68656 58.8321 5.36732 60.0103C6.04744 61.1887 6.88312 61.6476 7.76148 62.1793C8.63985 62.711 9.61147 63.187 10.56 63.6406C11.5085 64.0942 12.4382 64.5295 13.1656 64.9043C13.8929 65.2792 14.4372 65.6934 14.3787 65.635C14.3203 65.5766 14.7346 66.1254 15.1094 66.8528C15.4843 67.5801 15.9241 68.5091 16.3777 69.4584C16.8314 70.4076 17.3073 71.3739 17.839 72.2523C18.3708 73.1307 18.8297 73.9711 20.008 74.651C21.1863 75.331 22.1429 75.3049 23.1695 75.3265C24.1962 75.3482 25.2644 75.2885 26.3127 75.2071C27.3611 75.125 28.3766 75.0206 29.1941 74.9819C30.0114 74.9425 30.6987 75.0351 30.6186 75.0141C30.5385 74.9924 31.1799 75.2655 31.8686 75.708C32.5572 76.1498 33.4001 76.7308 34.2673 77.3255C35.1345 77.9203 36.0233 78.5308 36.9234 79.0258C37.8235 79.5208 38.6375 80 39.9977 80C41.358 80 42.1904 79.5208 43.0903 79.0258C43.9904 78.5308 44.8793 77.9203 45.7465 77.3255C46.6137 76.7308 47.4566 76.1498 48.1452 75.708C48.8337 75.2662 49.4568 74.9931 49.3767 75.0141C49.2966 75.0357 49.984 74.9432 50.8013 74.9819C51.6186 75.0213 52.6341 75.1257 53.6827 75.2071C54.7311 75.2891 55.8175 75.3475 56.8442 75.3265C57.8709 75.3049 58.8274 75.3311 60.0057 74.651C61.1839 73.9709 61.6475 73.1306 62.1793 72.2523C62.7111 71.374 63.1824 70.4075 63.6361 69.4584C64.0897 68.5097 64.5112 67.5801 64.886 66.8528C65.2609 66.1254 65.6751 65.5766 65.6167 65.635C65.5583 65.6934 66.1208 65.2792 66.8482 64.9043C67.5756 64.5295 68.5052 64.0942 69.4538 63.6406C70.4024 63.187 71.374 62.711 72.2523 62.1793C73.1307 61.6475 73.9663 61.1887 74.6465 60.0103C75.3266 58.832 75.3049 57.8755 75.3266 56.8488C75.3482 55.8221 75.2655 54.754 75.1841 53.7056C75.1021 52.6572 75.0161 51.6187 74.9773 50.8014C74.9379 49.9841 75.0174 49.3013 74.9957 49.3814C74.974 49.4615 75.2471 48.8339 75.6896 48.1453C76.1314 47.4566 76.7262 46.6183 77.3209 45.7511C77.9157 44.8839 78.5125 43.9904 79.0074 43.0904C79.5024 42.1904 80 41.3626 80 40.0023C80 38.6421 79.5024 37.828 79.0074 36.928C78.5124 36.0281 77.9157 35.1345 77.3209 34.2673C76.7262 33.4001 76.1314 32.5619 75.6896 31.8732C75.2478 31.1845 74.974 30.5431 74.9957 30.6232C75.0174 30.7033 74.9393 30.016 74.9773 29.1987C75.0167 28.3813 75.1027 27.3611 75.1841 26.3128C75.2662 25.2644 75.3482 24.1962 75.3266 23.1696C75.3049 22.1428 75.3266 21.1863 74.6465 20.008C73.9663 18.8297 73.1307 18.3708 72.2523 17.8391C71.3739 17.3073 70.403 16.8314 69.4538 16.3777C68.5052 15.9241 67.5756 15.4889 66.8482 15.114C66.1208 14.7392 65.5582 14.3249 65.6167 14.3834C65.6751 14.4418 65.2609 13.893 64.886 13.1656C64.5112 12.4382 64.0897 11.5093 63.6361 10.56C63.1824 9.61074 62.7111 8.64447 62.1793 7.76603C61.6476 6.88766 61.1841 6.0473 60.0057 5.36733C58.8272 4.68737 57.8708 4.71283 56.8442 4.69182C55.8174 4.67015 54.731 4.72989 53.6827 4.8113C52.6343 4.89336 51.6187 4.98395 50.8013 5.02268C49.984 5.06207 49.2966 4.98264 49.3767 5.0043C49.4568 5.02596 48.8338 4.75287 48.1452 4.3104C47.4565 3.86859 46.6136 3.28761 45.7465 2.69284C44.8793 2.09806 43.9904 1.48754 43.0903 0.992588C42.1902 0.497639 41.3578 0 39.9977 0ZM40.0023 4.77455C40.1579 4.83166 40.4638 4.93013 40.8157 5.12379C41.4452 5.46976 42.2599 5.9969 43.0904 6.56672C43.9208 7.13654 44.7663 7.73789 45.5902 8.26697C46.4141 8.79609 47.1126 9.27205 48.1635 9.55367C49.2145 9.83528 50.049 9.7749 51.0264 9.7283C52.0039 9.68234 53.0458 9.58124 54.0501 9.50313C55.0545 9.42501 56.0248 9.36396 56.7429 9.37906C57.1447 9.38759 57.4558 9.45915 57.616 9.49394C57.7217 9.61276 57.9377 9.84844 58.1491 10.197C58.5213 10.8115 58.9644 11.6826 59.399 12.5912C59.8336 13.4998 60.2688 14.4509 60.7179 15.3208C61.1669 16.1906 61.5293 16.9456 62.2987 17.715C63.0681 18.4843 63.8276 18.8467 64.6974 19.2958C65.5672 19.7448 66.5139 20.18 67.4224 20.6146C68.331 21.0492 69.2067 21.4969 69.8211 21.8692C70.1579 22.0727 70.3916 22.2781 70.515 22.3838C70.5439 22.5447 70.6122 22.865 70.6207 23.2753C70.6358 23.9935 70.5748 24.9454 70.4966 25.9498C70.4185 26.9542 70.3365 28.0099 70.2898 28.9873C70.2439 29.9648 70.1828 30.8039 70.4645 31.8547C70.7461 32.9058 71.1991 33.5997 71.7282 34.4235C72.2573 35.2473 72.8816 36.0929 73.4515 36.9234C74.0213 37.7538 74.5438 38.5731 74.8898 39.2026C75.0828 39.5532 75.1819 39.8505 75.2345 40.0022C75.1819 40.1571 75.0841 40.4624 74.8898 40.8156C74.5438 41.4451 74.0213 42.2598 73.4515 43.0902C72.8816 43.9207 72.2573 44.7662 71.7282 45.5901C71.1991 46.414 70.7461 47.1125 70.4645 48.1634C70.1828 49.2144 70.2439 50.0489 70.2898 51.0263C70.3358 52.0038 70.4185 53.064 70.4966 54.0685C70.5748 55.0729 70.6358 56.0249 70.6207 56.743C70.6122 57.1546 70.5433 57.4704 70.515 57.6253C70.391 57.7356 70.1572 57.9456 69.8211 58.1492C69.2067 58.5214 68.3309 58.9645 67.4224 59.3991C66.5139 59.8337 65.5672 60.2689 64.6974 60.718C63.8275 61.167 63.068 61.5294 62.2987 62.2988C61.5294 63.0682 61.1669 63.8277 60.7179 64.6975C60.2689 65.5672 59.8336 66.514 59.399 67.4225C58.9644 68.3311 58.5213 69.2068 58.1491 69.8212C57.9456 70.1574 57.7355 70.3911 57.6252 70.5151C57.4696 70.5434 57.1545 70.6123 56.7429 70.6208C56.0247 70.6359 55.0544 70.5933 54.0501 70.5151C53.0457 70.437 52.0038 70.3359 51.0264 70.29C50.0489 70.244 49.2146 70.183 48.1635 70.4646C47.1125 70.7462 46.414 71.2176 45.5902 71.7467C44.7663 72.2758 43.9208 72.8818 43.0904 73.4517C42.2599 74.0216 41.4452 74.5486 40.8157 74.8946C40.4631 75.0882 40.1579 75.1821 40.0023 75.2346C39.8507 75.1821 39.5487 75.0869 39.1981 74.8946C38.5686 74.5486 37.7539 74.0215 36.9235 73.4517C36.093 72.8818 35.2291 72.2759 34.4053 71.7467C33.5814 71.2176 32.8875 70.7462 31.8365 70.4646C30.7855 70.183 29.9465 70.2434 28.9691 70.29C27.9916 70.3359 26.9544 70.437 25.9499 70.5151C24.9455 70.5933 23.9752 70.6359 23.2571 70.6208C22.8455 70.6123 22.5304 70.5434 22.3748 70.5151C22.2645 70.3911 22.0545 70.1574 21.8509 69.8212C21.4787 69.2068 21.0487 68.3317 20.6141 67.4225C20.1802 66.514 19.7443 65.568 19.2959 64.6975C18.8469 63.8276 18.4845 63.0681 17.7145 62.2988C16.9451 61.5294 16.1862 61.167 15.3158 60.718C14.4459 60.2696 13.4999 59.8337 12.5914 59.3991C11.6821 58.9652 10.811 58.5214 10.1965 58.1492C9.84533 57.9365 9.60702 57.7205 9.48886 57.6161C9.45407 57.4559 9.3871 57.1441 9.37857 56.743C9.36347 56.0248 9.41993 55.0729 9.49805 54.0685C9.57617 53.0641 9.68187 52.0039 9.72782 51.0263C9.77377 50.0488 9.83483 49.2145 9.55319 48.1634C9.27156 47.1124 8.79562 46.4139 8.2665 45.5901C7.73739 44.7662 7.13604 43.9207 6.56626 43.0902C5.99644 42.2598 5.46929 41.4451 5.12332 40.8156C4.92967 40.463 4.8266 40.1578 4.76948 40.0022C4.82659 39.8505 4.93097 39.5532 5.12332 39.2026C5.46929 38.573 5.99644 37.7537 6.56626 36.9234C7.13608 36.093 7.73742 35.2474 8.2665 34.4235C8.79562 33.5996 9.27157 32.9057 9.55319 31.8547C9.83481 30.8037 9.77377 29.9647 9.72782 28.9873C9.68186 28.0098 9.57617 26.9541 9.49805 25.9498C9.41993 24.9454 9.36347 23.9935 9.37857 23.2753C9.3871 22.8755 9.45407 22.5585 9.48886 22.393C9.60637 22.2939 9.84467 22.0825 10.1965 21.8692C10.811 21.4969 11.6821 21.0492 12.5907 20.6146C13.4993 20.18 14.4459 19.7448 15.3158 19.2958C16.1856 18.8467 16.9451 18.4844 17.7145 17.715C18.4838 16.9456 18.8462 16.1906 19.2952 15.3208C19.7443 14.451 20.1795 13.4997 20.6141 12.5912C21.0487 11.6826 21.478 10.8115 21.8503 10.197C22.0617 9.84844 22.2776 9.61276 22.3833 9.49394C22.5435 9.45915 22.8547 9.38759 23.2564 9.37906C23.9746 9.36396 24.9449 9.42501 25.9492 9.50313C26.9537 9.58125 27.9908 9.68235 28.9684 9.7283C29.9459 9.77425 30.785 9.8353 31.8358 9.55367C32.8867 9.27203 33.5808 8.79609 34.4046 8.26697C35.2285 7.73786 36.0924 7.13651 36.9228 6.56672C37.7532 5.99694 38.5679 5.46976 39.1974 5.12379C39.5473 4.93145 39.85 4.83165 40.0016 4.77455H40.0023ZM39.9977 15.0774C26.2596 15.0774 15.0764 26.2598 15.0764 39.9988C15.0764 53.7378 26.2588 64.9421 39.9977 64.9421C53.7358 64.9421 64.9224 53.7366 64.9224 39.9988C64.9224 26.261 53.7355 15.0774 39.9977 15.0774ZM39.9977 19.783C51.1933 19.783 60.2303 28.8024 60.2303 39.9988C60.2303 51.1952 51.1926 60.2364 39.9977 60.2364C28.8022 60.2364 19.782 51.194 19.782 39.9988C19.782 28.8036 28.8013 19.783 39.9977 19.783ZM49.5515 31.0739H49.5508C48.937 31.0975 48.3567 31.3594 47.9333 31.8046L36.6655 43.247L32.061 38.5919C31.6244 38.135 31.0225 37.8731 30.3903 37.8646C29.7581 37.8567 29.1489 38.1035 28.7005 38.5493C28.2521 38.995 28.002 39.6023 28.0066 40.2344C28.0111 40.8672 28.2705 41.4705 28.7247 41.9097L34.9973 48.2513H34.998C35.4424 48.697 36.0471 48.9458 36.6766 48.9425C37.3062 48.9393 37.9082 48.6832 38.3474 48.2329L51.2878 35.104C51.9811 34.4232 52.1846 33.3866 51.7999 32.4938C51.4158 31.6017 50.5224 31.0378 49.5508 31.0739H49.5515Z" fill="#ff9d33"/>
</svg>